<svg xmlns="http://www.w3.org/2000/svg" viewBox="0 0 512 512" width="512" height="512">
	<style>
		tspan { white-space:pre }
		.shp0 { fill: #000000 } 
	</style>
	<g id="Layer">
		<path id="Layer" fill-rule="evenodd" class="shp0" d="M399.53 191.73L399.53 288.13C399.53 296.42 392.82 303.13 384.53 303.13L335.27 303.13L335.27 320.27C335.27 328.55 328.55 335.27 320.27 335.27L190.67 335.27L190.67 448.8C190.67 457.08 183.95 463.8 175.67 463.8L92.46 463.8C85.74 491.47 60.84 512 31.07 512L15 512C6.72 512 0 505.28 0 497L0 400.6C0 392.32 6.72 385.6 15 385.6L31.07 385.6C60.81 385.6 85.74 406.11 92.47 433.8L160.67 433.8L160.67 335.27L47.13 335.27C21.33 335.27 0 314.41 0 288.13L0 191.73C0 165.91 20.87 144.6 47.13 144.6L320.27 144.6C328.55 144.6 335.27 151.32 335.27 159.6L335.27 176.73L384.53 176.73C392.82 176.73 399.53 183.45 399.53 191.73ZM64.27 448.8C64.27 430.45 49.43 415.6 31.07 415.6L30 415.6L30 482L31.07 482C49.42 482 64.27 467.16 64.27 448.8ZM305.27 174.6L47.13 174.6C37.72 174.6 30 182.22 30 191.73L30 288.13C30 297.73 37.81 305.27 47.13 305.27L305.27 305.27L305.27 174.6ZM369.53 206.73L335.27 206.73L335.27 273.13L369.53 273.13L369.53 206.73Z" />
		<path id="Layer" class="shp0" d="M79.27 238.87L127.47 238.87C135.75 238.87 142.47 232.15 142.47 223.87C142.47 215.58 135.75 208.87 127.47 208.87L79.27 208.87C70.98 208.87 64.27 215.58 64.27 223.87C64.27 232.15 70.98 238.87 79.27 238.87L79.27 238.87Z" />
	</g>
</svg>