<svg id="Layer_1" enable-background="new 0 0 512 512" height="512" viewBox="0 0 512 512" width="512" xmlns="http://www.w3.org/2000/svg"><path d="m487.768 245.72c10.652 6.391 24.232-1.301 24.232-13.72v-72c0-5.62-2.949-10.828-7.768-13.72l-240-144c-5.067-3.04-11.396-3.04-16.464 0l-240 144c-4.819 2.892-7.768 8.1-7.768 13.72v72c0 12.422 13.584 20.11 24.232 13.72l23.768-14.261v184.541h-32c-8.836 0-16 7.164-16 16v64c0 8.836 7.164 16 16 16h480c8.836 0 16-7.164 16-16v-64c0-8.836-7.164-16-16-16h-32v-184.541zm-455.768-76.661 224-134.4 224 134.4v34.682l-215.768-129.461c-5.068-3.041-11.396-3.04-16.464 0l-215.768 129.461zm448 310.941h-448v-32h448zm-48-64h-104v-81.373l31.72-31.72c20.375 5.465 40.28-9.993 40.28-30.907 0-17.645-14.355-32-32-32-20.924 0-36.369 19.915-30.908 40.281l-36.406 36.406c-3.001 3-4.687 7.07-4.687 11.313v88h-24v-196.305c9.555-5.542 16-15.877 16-27.695 0-17.645-14.355-32-32-32s-32 14.355-32 32c0 11.818 6.445 22.153 16 27.695v196.305h-24v-128c0-8.836-7.164-16-16-16h-28.305c-5.542-9.555-15.877-16-27.695-16-17.645 0-32 14.355-32 32s14.355 32 32 32c11.818 0 22.153-6.445 27.695-16h12.306v112h-104v-203.741l176-105.6 176 105.6z"/></svg>