<svg xmlns="http://www.w3.org/2000/svg" viewBox="0 0 512 512" width="512" height="512">
	<style>
		tspan { white-space:pre }
		.shp0 { fill: #000000 } 
	</style>
	<g id="Layer">
		<path id="Layer" class="shp0" d="M175.67 112.47C114.24 112.47 64.27 162.44 64.27 223.87C64.27 232.15 70.98 238.87 79.27 238.87C87.55 238.87 94.27 232.15 94.27 223.87C94.27 178.98 130.78 142.47 175.67 142.47C183.95 142.47 190.67 135.75 190.67 127.47C190.67 119.18 183.95 112.47 175.67 112.47L175.67 112.47Z" />
		<path id="Layer" fill-rule="evenodd" class="shp0" d="M175.67 48.2C272.53 48.2 351.33 127 351.33 223.87C351.33 275.6 328.73 324.16 289.3 357.12C267.46 376.18 254.93 403.73 254.93 432.72L254.93 464.87C254.93 490.86 233.79 512 207.8 512L143.53 512C117.54 512 96.4 490.86 96.4 464.87L96.4 432.72C96.4 403.73 83.88 376.18 62.04 357.12C22.61 324.16 0 275.61 0 223.87C0 127 78.8 48.2 175.67 48.2ZM224.93 447.73L126.4 447.73L126.4 464.87C126.4 474.31 134.09 482 143.53 482L207.8 482C217.25 482 224.93 474.31 224.93 464.87L224.93 447.73ZM321.33 223.87C321.33 143.55 255.99 78.2 175.67 78.2C95.35 78.2 30 143.55 30 223.87C30 266.73 48.73 306.95 81.38 334.19C81.46 334.26 81.54 334.32 81.62 334.39C106.28 355.85 121.82 385.62 125.54 417.73L225.8 417.73C229.51 385.62 245.06 355.85 269.71 334.39C269.79 334.32 269.87 334.26 269.95 334.19C302.61 306.95 321.33 266.73 321.33 223.87Z" />
	</g>
</svg>