<svg xmlns="http://www.w3.org/2000/svg" viewBox="0 0 512 512" width="512" height="512">
	<style>
		tspan { white-space:pre }
		.shp0 { fill: #000000 } 
	</style>
	<g id="Layer">
		<path id="Layer" fill-rule="evenodd" class="shp0" d="M432.73 176.73C441.02 176.73 447.73 183.45 447.73 191.73L447.73 432.73C447.73 441.02 441.02 447.73 432.73 447.73L287.07 447.73L287.07 482L368.47 482C376.75 482 383.47 488.72 383.47 497C383.47 505.28 376.75 512 368.47 512L79.27 512C70.98 512 64.27 505.28 64.27 497C64.27 488.72 70.98 482 79.27 482L160.67 482L160.67 447.73L15 447.73C6.72 447.73 0 441.02 0 432.73L0 191.73C0 183.45 6.72 176.73 15 176.73L432.73 176.73ZM257.07 447.73L190.67 447.73L190.67 482L257.07 482L257.07 447.73ZM417.73 206.73L30 206.73L30 417.73L417.73 417.73L417.73 206.73Z" />
	</g>
</svg>