<svg xmlns="http://www.w3.org/2000/svg" viewBox="0 0 512 512" width="512" height="512">
	<style>
		tspan { white-space:pre }
		.shp0 { fill: #000000 } 
	</style>
	<g id="Layer">
		<path id="Layer" fill-rule="evenodd" class="shp0" d="M320.27 48.2C328.55 48.2 335.27 54.92 335.27 63.2L335.27 497C335.27 505.28 328.55 512 320.27 512L15 512C6.72 512 0 505.28 0 497L0 63.2C0 54.92 6.72 48.2 15 48.2L320.27 48.2ZM305.27 78.2L30 78.2L30 482L305.27 482L305.27 78.2Z" />
		<path id="Layer" fill-rule="evenodd" class="shp0" d="M167.63 206.73C141.64 206.73 120.5 185.59 120.5 159.6C120.5 133.61 141.64 112.47 167.63 112.47C193.62 112.47 214.77 133.61 214.77 159.6C214.77 185.59 193.62 206.73 167.63 206.73ZM167.63 142.47C158.19 142.47 150.5 150.15 150.5 159.6C150.5 169.05 158.19 176.73 167.63 176.73C177.08 176.73 184.77 169.05 184.77 159.6C184.77 150.15 177.08 142.47 167.63 142.47Z" />
		<path id="Layer" fill-rule="evenodd" class="shp0" d="M167.63 455.77C106.21 455.77 56.23 405.79 56.23 344.37C56.23 282.94 106.21 232.97 167.63 232.97C229.06 232.97 279.03 282.94 279.03 344.37C279.03 405.79 229.06 455.77 167.63 455.77ZM86.23 344.37C86.23 389.25 122.75 425.77 167.63 425.77C212.52 425.77 249.03 389.25 249.03 344.37C249.03 299.48 212.52 262.97 167.63 262.97C122.75 262.97 86.23 299.48 86.23 344.37Z" />
		<path id="Layer" fill-rule="evenodd" class="shp0" d="M120.5 344.37C120.5 318.38 141.64 297.23 167.63 297.23C193.62 297.23 214.77 318.38 214.77 344.37C214.77 370.36 193.62 391.5 167.63 391.5C141.64 391.5 120.5 370.35 120.5 344.37ZM167.63 327.23C158.19 327.23 150.5 334.92 150.5 344.37C150.5 353.81 158.19 361.5 167.63 361.5C177.08 361.5 184.77 353.81 184.77 344.37C184.77 334.92 177.08 327.23 167.63 327.23Z" />
	</g>
</svg>